<svg viewBox="0 0 1280 720" xmlns="http://www.w3.org/2000/svg">
    <style>
        .background { fill: #0E1428; }
        .frame { fill: #1F2A44; stroke: #00B4D8; stroke-width: 2; }
        .primary { fill: #00B4D8; }
        .secondary { fill: #FF9F1C; }
    </style>
    
    <g id="Clean Simple Background">
        <rect id="16:9" width="1280" height="720" class="background"/>
        
        <!-- Main frame -->
        <rect id="Rectangle 2" x="21" y="16" width="1238" height="687" rx="40" class="frame"/>
        
        <!-- Top header bar - preserved as requested -->
        <rect id="Rectangle 9" x="158" y="90" width="1035" height="7" class="primary"/>
        
        <!-- Simple top elements - clean rectangles -->
        <rect id="Top-Element-1" x="1100" y="0" width="60" height="16" class="secondary"/>
        <rect id="Top-Element-2" x="1170" y="0" width="60" height="16" class="secondary"/>
        
        <!-- Left side decorative elements -->
        <g id="LeftDesign" opacity="0.7">
            <rect x="21" y="150" width="50" height="4" rx="2" class="primary" opacity="0.3"/>
            <rect x="21" y="170" width="35" height="4" rx="2" class="primary" opacity="0.3"/>
            <rect x="21" y="190" width="60" height="4" rx="2" class="primary" opacity="0.3"/>
            
            <rect x="21" y="250" width="40" height="4" rx="2" class="primary" opacity="0.3"/>
            <rect x="21" y="270" width="55" height="4" rx="2" class="primary" opacity="0.3"/>
            <rect x="21" y="290" width="45" height="4" rx="2" class="primary" opacity="0.3"/>
            
            <rect x="21" y="350" width="60" height="4" rx="2" class="primary" opacity="0.3"/>
            <rect x="21" y="370" width="40" height="4" rx="2" class="primary" opacity="0.3"/>
            <rect x="21" y="390" width="50" height="4" rx="2" class="primary" opacity="0.3"/>
            
            <rect x="21" y="450" width="45" height="4" rx="2" class="primary" opacity="0.3"/>
            <rect x="21" y="470" width="55" height="4" rx="2" class="primary" opacity="0.3"/>
            <rect x="21" y="490" width="35" height="4" rx="2" class="primary" opacity="0.3"/>
            
            <rect x="21" y="550" width="50" height="4" rx="2" class="primary" opacity="0.3"/>
            <rect x="21" y="570" width="40" height="4" rx="2" class="primary" opacity="0.3"/>
            <rect x="21" y="590" width="60" height="4" rx="2" class="primary" opacity="0.3"/>
        </g>
        
        <!-- Right side decorative elements -->
        <g id="RightDesign" opacity="0.7">
            <rect x="1189" y="150" width="50" height="4" rx="2" class="primary" opacity="0.3"/>
            <rect x="1204" y="170" width="35" height="4" rx="2" class="primary" opacity="0.3"/>
            <rect x="1179" y="190" width="60" height="4" rx="2" class="primary" opacity="0.3"/>
            
            <rect x="1199" y="250" width="40" height="4" rx="2" class="primary" opacity="0.3"/>
            <rect x="1184" y="270" width="55" height="4" rx="2" class="primary" opacity="0.3"/>
            <rect x="1194" y="290" width="45" height="4" rx="2" class="primary" opacity="0.3"/>
            
            <rect x="1179" y="350" width="60" height="4" rx="2" class="primary" opacity="0.3"/>
            <rect x="1199" y="370" width="40" height="4" rx="2" class="primary" opacity="0.3"/>
            <rect x="1189" y="390" width="50" height="4" rx="2" class="primary" opacity="0.3"/>
            
            <rect x="1194" y="450" width="45" height="4" rx="2" class="primary" opacity="0.3"/>
            <rect x="1184" y="470" width="55" height="4" rx="2" class="primary" opacity="0.3"/>
            <rect x="1204" y="490" width="35" height="4" rx="2" class="primary" opacity="0.3"/>
            
            <rect x="1189" y="550" width="50" height="4" rx="2" class="primary" opacity="0.3"/>
            <rect x="1199" y="570" width="40" height="4" rx="2" class="primary" opacity="0.3"/>
            <rect x="1179" y="590" width="60" height="4" rx="2" class="primary" opacity="0.3"/>
        </g>
        
        <!-- Simple bottom elements - clean rectangles -->
        <rect id="Bottom-Element-1" x="150" y="703" width="60" height="17" class="secondary"/>
        <rect id="Bottom-Element-2" x="220" y="703" width="60" height="17" class="secondary"/>
    </g>
</svg>
