<svg viewBox="0 0 1280 720" xmlns="http://www.w3.org/2000/svg">
    <style>
        .background { fill: #0C1E3E; }
        .frame { fill: #172E50; stroke: #48CAE4; stroke-width: 2; }
        .primary { fill: #48CAE4; }
        .secondary { fill: #8AC926; }
    </style>
    
    <g id="Analytics Tech Background">
        <rect id="16:9" width="1280" height="720" class="background"/>
        
        <!-- Main frame -->
        <rect id="Rectangle 2" x="21" y="16" width="1238" height="687" rx="40" class="frame"/>
        
        <!-- Top header bar - preserved as requested -->
        <rect id="Rectangle 9" x="158" y="90" width="1035" height="7" class="primary"/>
        
        <!-- Simple top elements - trapezoids for cleaner look -->
        <path id="Top-Element-1" d="M1123.5 0L1109 16H1165L1150 0H1123.5Z" class="secondary"/>
        <path id="Top-Element-2" d="M1175 0L1190 0L1205 16H1159L1175 0Z" class="secondary"/>
        
        <!-- Left side organic vector - the one you liked -->
        <path id="Left-Vector" d="M86 259.003C84 221.5 35.918 226.569 21 184V558C33.7869 508.336 86 517.5 86 481.984V259.003Z" class="secondary" opacity="0.8">
            <animate attributeName="opacity" values="0.8; 1; 0.8" dur="5s" repeatCount="indefinite" />
        </path>
        
        <!-- Right side analytics elements -->
        <g id="Right-Analytics">
            <!-- Analytics line graph pattern -->
            <path d="M1259 200C1230 190 1220 215 1200 205C1180 195 1170 220 1150 210" stroke="#48CAE4" stroke-width="1.5" fill="none" opacity="0.5"/>
            
            <!-- Bar chart pattern -->
            <rect x="1210" y="250" width="10" height="20" rx="1" class="primary" opacity="0.3"/>
            <rect x="1230" y="250" width="10" height="30" rx="1" class="primary" opacity="0.4"/>
            <rect x="1250" y="250" width="10" height="15" rx="1" class="primary" opacity="0.3"/>
            
            <!-- Circuit board pattern -->
            <line x1="1220" y1="320" x2="1259" y2="320" stroke="#48CAE4" stroke-width="1" opacity="0.4"/>
            <line x1="1220" y1="340" x2="1259" y2="340" stroke="#48CAE4" stroke-width="1" opacity="0.4"/>
            <line x1="1220" y1="330" x2="1220" y2="340" stroke="#48CAE4" stroke-width="1" opacity="0.4"/>
            <line x1="1240" y1="320" x2="1240" y2="340" stroke="#48CAE4" stroke-width="1" opacity="0.4"/>
            <circle cx="1240" cy="320" r="3" class="primary" opacity="0.5"/>
            <circle cx="1220" cy="340" r="3" class="primary" opacity="0.5"/>
            
            <!-- DNA/molecule pattern -->
            <line x1="1235" y1="380" x2="1245" y2="400" stroke="#48CAE4" stroke-width="1" opacity="0.4"/>
            <line x1="1245" y1="400" x2="1235" y2="420" stroke="#48CAE4" stroke-width="1" opacity="0.4"/>
            <line x1="1235" y1="420" x2="1245" y2="440" stroke="#48CAE4" stroke-width="1" opacity="0.4"/>
            <line x1="1245" y1="440" x2="1235" y2="460" stroke="#48CAE4" stroke-width="1" opacity="0.4"/>
            
            <line x1="1235" y1="380" x2="1255" y2="380" stroke="#48CAE4" stroke-width="1" opacity="0.4"/>
            <line x1="1225" y1="420" x2="1245" y2="420" stroke="#48CAE4" stroke-width="1" opacity="0.4"/>
            <line x1="1235" y1="460" x2="1255" y2="460" stroke="#48CAE4" stroke-width="1" opacity="0.4"/>
            
            <circle cx="1235" cy="380" r="3" class="primary" opacity="0.5"/>
            <circle cx="1245" cy="400" r="3" class="primary" opacity="0.5"/>
            <circle cx="1235" cy="420" r="3" class="primary" opacity="0.5"/>
            <circle cx="1245" cy="440" r="3" class="primary" opacity="0.5"/>
            <circle cx="1235" cy="460" r="3" class="primary" opacity="0.5"/>
            <circle cx="1255" cy="380" r="3" class="primary" opacity="0.5"/>
            <circle cx="1225" cy="420" r="3" class="primary" opacity="0.5"/>
            <circle cx="1255" cy="460" r="3" class="primary" opacity="0.5"/>
            
            <!-- Data flow lines -->
            <path d="M1230 500C1240 500 1245 510 1255 510" stroke="#48CAE4" stroke-width="1.5" opacity="0.4" stroke-dasharray="4,4">
                <animate attributeName="stroke-dashoffset" from="0" to="16" dur="3s" repeatCount="indefinite"/>
            </path>
            <path d="M1230 520C1240 520 1245 530 1255 530" stroke="#48CAE4" stroke-width="1.5" opacity="0.4" stroke-dasharray="4,4">
                <animate attributeName="stroke-dashoffset" from="0" to="16" dur="4s" repeatCount="indefinite"/>
            </path>
            <path d="M1230 540C1240 540 1245 550 1255 550" stroke="#48CAE4" stroke-width="1.5" opacity="0.4" stroke-dasharray="4,4">
                <animate attributeName="stroke-dashoffset" from="0" to="16" dur="5s" repeatCount="indefinite"/>
            </path>
        </g>
        
        <!-- Simple bottom elements - trapezoids that match the top -->
        <path id="Bottom-Element-1" d="M261.5 703L247 720H303L288.5 703H261.5Z" class="secondary"/>
        <path id="Bottom-Element-2" d="M201.5 703L187 720H243L228.5 703H201.5Z" class="secondary"/>
    </g>
</svg>
